<svg height="512pt" viewBox="-1 0 512 512" width="512pt" xmlns="http://www.w3.org/2000/svg"><path d="m490.265625 159.050781h-7.183594v-65.027343c0-35.898438-29.207031-65.105469-65.105469-65.105469h-78.386718c-4.144532 0-7.5 3.359375-7.5 7.5s3.355468 7.5 7.5 7.5h78.386718c27.628907 0 50.105469 22.476562 50.105469 50.105469v73.691406h-118.730469c-27.203124-28.394532-65.476562-46.105469-107.8125-46.105469-42.335937 0-80.605468 17.707031-107.8125 46.105469h-118.726562v-73.691406c0-27.628907 22.476562-50.105469 50.105469-50.105469h241.820312c4.144531 0 7.5-3.359375 7.5-7.5s-3.355469-7.5-7.5-7.5h-88.5v-8.664063c.003907-11.167968-9.082031-20.253906-20.253906-20.253906h-24.234375c-11.167969 0-20.253906 9.085938-20.253906 20.253906v8.664063h-14.335938v-8.664063c0-11.167968-9.085937-20.253906-20.253906-20.253906h-24.238281c-11.167969 0-20.253907 9.085938-20.253907 20.253906v8.664063h-9.496093c-35.898438 0-65.105469 29.207031-65.105469 65.109375v81.175781.011719.011718 271.667969c0 35.898438 29.207031 65.105469 65.105469 65.105469h352.871093c35.898438 0 65.105469-29.207031 65.105469-65.105469v-24.566406c0-4.140625-3.359375-7.5-7.5-7.5-4.144531 0-7.5 3.359375-7.5 7.5v24.566406c0 27.628907-22.480469 50.105469-50.105469 50.105469h-352.871093c-27.628907 0-50.105469-22.480469-50.105469-50.105469v-264.179687h106.132812c-18.183593 24.738281-28.941406 55.257812-28.941406 88.242187 0 82.351563 67 149.347657 149.347656 149.347657 82.351563 0 149.347657-66.996094 149.347657-149.347657 0-32.984375-10.757813-63.503906-28.9375-88.242187h106.132812v140.953125c0 4.144531 3.355469 7.5 7.5 7.5 4.140625 0 7.5-3.355469 7.5-7.5v-23.339844h7.183594c11.167969 0 20.253906-9.085937 20.253906-20.257813v-100.761718c0-11.167969-9.085937-20.257813-20.253906-20.257813zm-321.582031-138.796875c0-2.894531 2.355468-5.253906 5.253906-5.253906h24.234375c2.898437 0 5.253906 2.355469 5.253906 5.253906v8.664063h-34.742187zm-79.082032 0c0-2.894531 2.359376-5.253906 5.253907-5.253906h24.238281c2.894531 0 5.253906 2.355469 5.253906 5.253906v8.664063h-34.746094zm151.9375 385.050782c-74.078124 0-134.347656-60.269532-134.347656-134.347657s60.269532-134.347656 134.347656-134.347656c74.078126 0 134.347657 60.269531 134.347657 134.347656s-60.269531 134.347657-134.347657 134.347657zm253.980469-125.234376c0 2.898438-2.359375 5.257813-5.253906 5.257813h-7.183594v-111.277344h7.183594c2.894531 0 5.253906 2.359375 5.253906 5.257813zm0 0"/><path d="m475.582031 348.828125c-4.144531 0-7.5 3.359375-7.5 7.5v33.339844c0 4.144531 3.355469 7.5 7.5 7.5 4.140625 0 7.5-3.355469 7.5-7.5v-33.339844c0-4.140625-3.359375-7.5-7.5-7.5zm0 0"/><path d="m241.539062 159.050781c-61.703124 0-111.90625 50.203125-111.90625 111.90625 0 61.707031 50.203126 111.90625 111.90625 111.90625 61.707032 0 111.90625-50.199219 111.90625-111.90625 0-61.703125-50.199218-111.90625-111.90625-111.90625zm0 208.8125c-53.433593 0-96.90625-43.472656-96.90625-96.90625 0-53.433593 43.472657-96.90625 96.90625-96.90625 53.433594 0 96.90625 43.472657 96.90625 96.90625 0 53.433594-43.472656 96.90625-96.90625 96.90625zm0 0"/><path d="m425.847656 109.65625c0-18.886719-15.367187-34.253906-34.253906-34.253906s-34.253906 15.367187-34.253906 34.253906c0 18.890625 15.363281 34.253906 34.253906 34.253906 18.886719 0 34.253906-15.367187 34.253906-34.253906zm-53.507812 0c0-10.617188 8.636718-19.253906 19.253906-19.253906 10.613281 0 19.25 8.636718 19.25 19.253906s-8.636719 19.253906-19.25 19.253906c-10.617188 0-19.253906-8.636718-19.253906-19.253906zm0 0"/><path d="m99.691406 80.582031h-38.628906c-4.140625 0-7.5 3.355469-7.5 7.5 0 4.140625 3.359375 7.5 7.5 7.5h38.628906c4.144532 0 7.5-3.359375 7.5-7.5 0-4.144531-3.355468-7.5-7.5-7.5zm0 0"/><path d="m99.691406 102.15625h-38.628906c-4.140625 0-7.5 3.359375-7.5 7.5 0 4.144531 3.359375 7.5 7.5 7.5h38.628906c4.144532 0 7.5-3.355469 7.5-7.5 0-4.140625-3.355468-7.5-7.5-7.5zm0 0"/><path d="m99.691406 123.734375h-38.628906c-4.140625 0-7.5 3.355469-7.5 7.5 0 4.140625 3.359375 7.5 7.5 7.5h38.628906c4.144532 0 7.5-3.359375 7.5-7.5 0-4.144531-3.355468-7.5-7.5-7.5zm0 0"/></svg>