<?xml version="1.0" encoding="UTF-8"?>
<svg width="20px" height="17px" viewBox="0 0 20 17" version="1.1" xmlns="http://www.w3.org/2000/svg" xmlns:xlink="http://www.w3.org/1999/xlink">
    <g id="Page-1" stroke="none" stroke-width="1" fill="none" fill-rule="evenodd">
        <g id="SignUp_WithGoogle" transform="translate(-817.000000, -324.000000)" fill="#1DA1F2" fill-rule="nonzero">
            <g id="Social-Oauth-config" transform="translate(565.000000, 285.000000)">
                <g id="social-oauth-buttons" transform="translate(0.000000, 26.000000)">
                    <g id="twitter" transform="translate(214.000000, 0.000000)">
                        <path d="M44.2896,30 C51.8368,30 55.9648,23.4590823 55.9648,17.7868279 C55.9648,17.6010444 55.9648,17.4160978 55.9528,17.231988 C56.7558651,16.6243512 57.4490844,15.8719854 58,15.0101179 C57.2511032,15.35725 56.4566634,15.5848991 55.6432,15.685466 C56.4997952,15.1490221 57.1408988,14.3052889 57.4472,13.311287 C56.641726,13.8112749 55.7605169,14.1636415 54.8416,14.3531808 C53.5696662,12.9383762 51.5485755,12.5920978 49.9116394,13.5085187 C48.2747034,14.4249395 47.42902,16.3761502 47.8488,18.2680239 C44.5495166,18.0950021 41.4755806,16.4648556 39.392,13.7832774 C38.3028982,15.7445859 38.8591903,18.2536796 40.6624,19.5132753 C40.009393,19.4930296 39.3706235,19.3087572 38.8,18.9760096 C38.8,18.9935837 38.8,19.0119947 38.8,19.0304056 C38.8005345,21.0736834 40.1774012,22.8335569 42.092,23.2381506 C41.4878957,23.4104941 40.8540645,23.4356872 40.2392,23.3117945 C40.7767583,25.0603542 42.3172596,26.2582066 44.0728,26.2926989 C42.619788,27.4872632 40.8248476,28.1357445 38.9768,28.1337965 C38.6503229,28.1331409 38.3241633,28.1124628 38,28.0718687 C39.8765088,29.3315783 42.0599307,29.9997631 44.2896,29.9966525" id="Shape"></path>
                    </g>
                </g>
            </g>
        </g>
    </g>
</svg>
