<?xml version="1.0"?>
<svg xmlns="http://www.w3.org/2000/svg" viewBox="0 0 64 64" width="512" height="512"><g id="Upload"><path d="M54,30.6V15a3,3,0,0,0-2-2.816V9a3,3,0,0,0-3-3H21a1,1,0,0,1-1-1,3,3,0,0,0-3-3H5A3,3,0,0,0,2,5V43a3,3,0,0,0,3,3H28.051A16.989,16.989,0,1,0,54,30.6ZM4,43V5A1,1,0,0,1,5,4H17a1,1,0,0,1,1,1,3,3,0,0,0,3,3H49a1,1,0,0,1,1,1v3H13a5.006,5.006,0,0,0-5,5V41a4.948,4.948,0,0,0,1.026,3H5A1,1,0,0,1,4,43Zm6-2V17a3,3,0,0,1,3-3H51a1,1,0,0,1,1,1V29.526A16.947,16.947,0,0,0,28.051,44H13A3,3,0,0,1,10,41ZM45,60A15,15,0,1,1,60,45,15.017,15.017,0,0,1,45,60Z"/><path d="M45.659,34.248a1,1,0,0,0-1.318,0l-8,7A1,1,0,0,0,36,42v5a1,1,0,0,0,1.64.768L42,44.135V55a1,1,0,0,0,1,1h4a1,1,0,0,0,1-1V44.135l4.36,3.633A1,1,0,0,0,54,47V42a1,1,0,0,0-.341-.752ZM52,44.865l-4.36-3.633A1,1,0,0,0,46,42V54H44V42a1,1,0,0,0-1.64-.768L38,44.865V42.454l7-6.125,7,6.125Z"/><path d="M13,16a1,1,0,0,0-1,1v4h2V18h3V16Z"/><rect x="12" y="23" width="2" height="2"/></g></svg>
