<svg height="21px" viewBox="0 -61 512 512" width="21px" xmlns="http://www.w3.org/2000/svg"><path d="m211 270h90v-60h43.027344l-88.027344-132.042969-88.027344 132.042969h43.027344zm45-137.957031 31.972656 47.957031h-16.972656v60h-30v-60h-16.972656zm0 0"/><path d="m420.648438 154.148438c-5.601563-85.945313-77.308594-154.148438-164.648438-154.148438s-159.046875 68.203125-164.648438 154.148438c-52.886718 13.402343-91.351562 61.136718-91.351562 115.851562 0 66.167969 54.28125 120 121 120h270c66.71875 0 121-53.832031 121-120 0-54.714844-38.464844-102.449219-91.351562-115.851562zm-29.648438 205.851562h-270c-50.179688 0-91-40.375-91-90 0-44.167969 33.648438-82.28125 78.269531-88.65625l13.03125-1.859375c-.203125-13.03125-.050781-13.285156-.300781-15.277344.429688-74.074219 60.824219-134.207031 135-134.207031s134.570312 60.128906 134.996094 134.203125c-.25 2.003906-.09375 2.21875-.296875 15.28125l13.027343 1.859375c44.625 6.375 78.273438 44.488281 78.273438 88.65625 0 49.625-40.820312 90-91 90zm0 0"/><path d="m331 300h-150v-30h-30v60h210v-60h-30zm0 0"/></svg>
